# xmcd
#
# Track frame offsets: 
#        150
#        14428
#        28300
#        43411
#        52566
#        60063
#        74041
#        84328
#        95734
#        111444
#        161173
#        170532
#
# Disc length: 2479 seconds
#
# Revision: 0
# Processed by: cddbd v1.5.2PL0 Copyright (c) Steve Scherf et al.
# Submitted via: ExactAudioCopy v0.95b3
#
DISCID=a109ad0c
DTITLE=The Doors  - Perception Box Set - Disc 2
DYEAR=1900
DGENRE=
TTITLE0=Strange Days
TTITLE1=Youre Lost Little Girl
TTITLE2=Love Me Two Times
TTITLE3=Unhappy Girl
TTITLE4=Horse Latitudes
TTITLE5=Moonlight Drive
TTITLE6=People Are Strange
TTITLE7=My Eyes Have Seen You
TTITLE8=I cant see your face in my mind
TTITLE9=When The Musics Over
TTITLE10=People Are Strange (False Starts And Dialogue)
TTITLE11=Love Me Two Times (Take 3 Previously Unreleased Bonus Track)
EXTD=
EXTT0=
EXTT1=
EXTT2=
EXTT3=
EXTT4=
EXTT5=
EXTT6=
EXTT7=
EXTT8=
EXTT9=
EXTT10=
EXTT11=
PLAYORDER=
